<?xml version="1.0" encoding="UTF-8"?>
<svg id="Layer_1" data-name="Layer 1" xmlns="http://www.w3.org/2000/svg" viewBox="0 0 832.61 218.41">
  <defs>
    <style>
      .cls-1 {
        fill: #188542;
      }

      .cls-1, .cls-2, .cls-3, .cls-4 {
        stroke: #231f20;
        stroke-miterlimit: 10;
        stroke-width: 2px;
      }

      .cls-2 {
        fill: #177f40;
      }

      .cls-3 {
        fill: #dadddb;
      }

      .cls-4 {
        fill: #168241;
      }
    </style>
  </defs>
  <path class="cls-4" d="M152.26,35.78c15.63-1.78,28.98-.09,42.53,7.92,3.52,2.08,12.68,6.99,9.75,11.35-3.3,4.92-11.75,10.35-15.56,15.44-11.56-13.51-36.93-16.54-46.67.35s-4.39,39,15.12,44.21c13.26,3.54,22.91-2.07,32.54-10.58,1.5,0,15.64,14.07,16.06,15.95.5,2.26-3.82,6.02-5.55,7.6-14.39,13.15-36.96,14.92-55.21,10.19-51.26-13.28-46.98-96.29,6.98-102.43Z"/>
  <path class="cls-3" d="M528.49,43.51l25.99,1.01c.58,6.64.02,15.39,0,19.99h-24.5c-.11,0-1.5,1.39-1.5,1.5v72c0,.11-1.39,1.5-1.5,1.5h-26.5c.32-.98-1-2.17-1-2.5v-72.5c-7.21-.82-13.67,3.6-13.96-4.57-.49-13.8-.04-17.02,14.96-15.43-1.92-22.02,2.75-40.29,27.62-42.88,5.08-.53,25.47-1.86,26.84,2.28.89,2.7,1.74,16.49.12,19.71-2.24,1.94-26.58-3.9-26.58,4.39v15.5Z"/>
  <path class="cls-3" d="M475.49,2.51c.46,1.83.01,18.03.01,19.96.08,47.28-1.99,71.72.56,113-.59,4.45-1.26,4.04-2.07,4.04h-25c-.11,0-1.5-1.39-1.5-1.5V4.01c0-.11,1.39-1.5,1.5-1.5h26.5Z"/>
  <path class="cls-1" d="M710.28,28.8c35.52-3.61,63.35,27.29,99.56,11.56,4.97-2.16,15.64-11.97,20.1-6.82,7.31,8.45-16.63,20.6-22.94,22.98-43.8,16.52-71.19-20.69-111.17-10.17-5.09,1.34-16.96,8.58-19.79,8.18-6.28-.89-5.06-7.32-1.05-11.02,8.04-7.41,24.47-13.61,35.29-14.71Z"/>
  <path class="cls-1" d="M708.27,104.78c37.49-4.25,66.11,29.22,105.27,9.27,4.87-2.48,11.51-10.56,16.51-5.59,7.43,7.39-15.07,20.14-20.57,22.53-10.72,4.67-23.8,6.46-35.47,5.5-30.21-2.47-50.26-25.95-83.2-13.16-4.8,1.86-15.41,10.82-18.83,3.15-3.81-8.54,20.32-17.74,26.52-19.46,2.98-.82,6.76-1.89,9.77-2.23Z"/>
  <path class="cls-1" d="M672.73,91.27c-6.62-6.62,11.39-16.67,16.07-18.94,46.57-22.59,80.77,27.72,125.7,3.7,4.85-2.59,9.52-9.25,14.97-4.99,9.59,7.5-15.84,20.31-21.46,22.5-48.59,18.99-76.14-24.96-118.2-7.2-4.36,1.84-12.92,9.1-17.08,4.94Z"/>
  <path class="cls-3" d="M545.49,155.51v18c2.4.1,3.34-2.25,5.71-2.79,3.8-.87,9.68-.71,12.81,1.77,2.23,1.77,3.48,3.88,3.48,4.52v26.5h-6v-23.5c0-7.36-16-3.21-16,1v22.5h-6v-48h6Z"/>
  <path class="cls-3" d="M605.49,203.51h-6v-21.5c0-9.65-16-5.64-16-2v23.5h-7s1-33,1-33c1.1.17,4.75-.27,5.01,0,.44.45-1.29,4.47,1.48,4,.91-.15,1.7-2.22,3.24-2.76,5.33-1.89,9.55-1.62,14.05,1.45,3.14,2.14,4.08,4.23,4.22,4.82v25.5Z"/>
  <path class="cls-3" d="M810.28,169.72c2.82-.27,13.57,1.6,14.2,4.31,1.24,5.29-11.14.97-14.54,1.43s-6.44,3.72-3.48,6.58,16.69,2.05,18.81,9.17c4.56,15.29-20.32,16.58-27.77,7.8,4.17-6.3,6.46-.86,12.44-.44,3.24.22,7.45.27,9.48-2.69,1.9-6.52-17.25-5.54-19.49-12.31-2.59-7.84,2.86-13.13,10.35-13.85Z"/>
  <path class="cls-3" d="M532.49,173.52c-2.65,8.81-6.26,2.44-10.59,2-14.82-1.5-16.14,24.21.08,23.05,5.04-.36,6.59-5.61,10.48.44-12.94,13.93-33.23-.32-27.68-17.72,4.01-12.55,17.48-13.66,27.71-7.77Z"/>
  <path class="cls-3" d="M453.49,196.01c1.33,4.68,9.37-1.19,8.59,6.54-22.41,11.03-11.82-23.47-14.59-26.04-.88-.82-7.85,2.14-6.01-6,1.13-.23,4.65.34,5,0s.67-9.62,1.02-9.98,4.74.2,6-.01c.28,1.69-.4,9.62-.01,10.01.35.34,5.64-.25,7.01-.01v5.43c-.18,1.3-7.01.22-7.01.57,0,4.3-.87,16.44,0,19.5Z"/>
  <rect class="cls-3" x="652.49" y="155.51" width="6" height="48"/>
  <rect class="cls-3" x="746.49" y="170.51" width="6" height="33"/>
  <path class="cls-3" d="M748.19,156.66c5.14-1.46,7.22,6.4,2.58,7.71-5.48,1.54-7.32-6.36-2.58-7.71Z"/>
  <path class="cls-3" d="M630.99,140.51c-2.6-.74-2.77-6.65-3.51-9-5.61,1.12-9.94,5.94-15.77,7.72-17.42,5.31-50.27,1.55-53.98-20.46-6.86-40.67,39.7-45.87,68.76-39.27,2.98-24.02-19.43-24.39-36.75-19.25-3.12.92-12.98,5.96-14.35,5.79-2.42-.29-9.74-15.61-10.81-18.94.29-1.26,9.77-5.65,11.66-6.36,20.29-7.64,59.99-9.06,73.08,11.44,2.29,3.58,6.18,12.82,6.18,16.82v70c0,.11-1.39,1.5-1.5,1.5-4.96,0-19.5.99-23,0ZM587.28,103.79c-5.35,10.9,4.02,18.23,14.54,18.33,14.17.13,25.29-8.8,24.59-23.54-10.7-1.79-33.14-6.99-39.13,5.21Z"/>
  <path class="cls-1" d="M263.28,34.81c30.39-1.71,56.94,16.52,59.24,48.16,2.18,29.92-15.36,51.57-44.82,56.26-81.23,12.94-88.61-100.24-14.43-104.43ZM273.75,116.27c9.98-1.67,18.42-12.58,19.63-22.37,2.75-22.25-8.86-37.51-32.13-34.13-31.84,4.63-26.01,62.96,12.5,56.5Z"/>
  <path class="cls-3" d="M407.99,140.51c-6.27-1.05-3.57-6.31-7.02-10.01-6.88,4.23-13.14,8.18-21.25,9.73-16.5,3.17-44.85-1.15-47.99-21.47-5.52-35.7,26.99-42.73,55.3-41.3,2.53.13,12.03,2.67,12.99,1.09,3.17-21.24-16.53-23.01-32.58-19.59-6.71,1.43-12.59,5.23-19.28,6.61-1.76-2.93-10.47-15.72-9.25-18.06,1.42-2.73,14.33-7.29,17.81-8.27,25.91-7.31,68.8-4.76,71.8,29.73,1.45,16.68.6,35.19,1.01,51.99.08,3.39,1.03,19.54-2.54,19.54-5.4,0-14.17.81-19,0ZM358.69,108.28c-2,14.64,21.2,15.86,30.69,10.62,6.98-3.86,11.41-12.3,11.03-20.31-11.73-2.43-39.37-7.55-41.72,9.69Z"/>
  <path class="cls-2" d="M28.49,94.51c.65,8.11,3.8,15.42,11.32,19.17,8.74,4.36,25.51,4.02,34.36,0,3.75-1.7,8.6-7.39,12.3-5.69,1.32.61,11.05,12.9,11.06,14,.02,4.28-14.63,12.05-18.52,13.52-28.77,10.9-73.23,1.15-77.41-34.63C-3.4,58.08,23.45,29.9,66.73,35.77c25.02,3.39,38.51,35.14,31.82,57.3l-70.06,1.45ZM29.49,76.51h46c-2.65-27.37-43.52-26.83-46,0Z"/>
  <path class="cls-3" d="M730.48,174.51v-4.01c2.86,0,5.38-.81,6.01,2.51.89,4.7.6,24.73,0,30-1.5,13.29-14.03,17.41-25.24,12.23-5.09-2.35-5.44-2.9-2.73-7.72,10.09,6.42,23.18,5.99,21.96-9.02-13.02,11.69-28.03.81-25.9-15.42,1.7-12.91,16.65-16.84,25.9-8.58ZM721.89,197.48c13.46-1.58,11.31-24.64-3.66-21.76-11.47,2.2-10.25,23.39,3.66,21.76Z"/>
  <path class="cls-3" d="M793.49,189.51h-26c-.2,7.75,7.75,10.08,14.45,8.94,4.61-.78,5.03-5.76,9.53.56-7.84,8.32-24.36,7.3-29.17-3.82-12.27-28.34,33.64-35.95,31.18-5.68ZM766.49,184.51h21c-1.74-12.8-18.41-11.96-21,0Z"/>
  <path class="cls-3" d="M498.49,189.51h-26c.52,7.89,7.2,10.13,14.27,8.77,4.74-.92,5.49-5.27,9.71.73-11.09,11.22-30.8,4.29-30.77-12,.03-24.07,36.53-21.57,32.79,2.5ZM472.49,184.51h20c-1.23-12.47-19.09-12.15-20,0Z"/>
  <path class="cls-3" d="M677.22,170.74c21.73-4.45,28.48,21.05,14.78,30.78-22.88,16.23-35.78-26.48-14.78-30.78ZM684.91,198.47c11.77-1.73,9.77-25.34-3.67-22.77-11.81,2.26-10.84,24.9,3.67,22.77Z"/>
  <path class="cls-3" d="M628.24,169.75c20.92-1.16,23.24,34.29.75,34.84-21.14.52-22.86-33.61-.75-34.84ZM630.91,198.47c10.83-1.53,10.93-24.88-3.66-22.77-12.22,1.77-12.09,24.99,3.66,22.77Z"/>
</svg>